<svg xmlns="http://www.w3.org/2000/svg" viewBox="0 0 111.3 111.29">
    <defs>
        <style>.a{fill:none;stroke:#000;stroke-miterlimit:10;}</style>
    </defs>
    <path class="a"
          d="M182.11,228.57h0A18.38,18.38,0,0,1,163.73,247h0a18.38,18.38,0,0,0-18.38,18.38h0A18.38,18.38,0,0,1,127,283.72h0a18.38,18.38,0,0,1-18.38-18.38h0A18.38,18.38,0,0,0,90.19,247h0a18.38,18.38,0,0,1-18.38-18.38h0a18.38,18.38,0,0,1,18.38-18.38h0a18.38,18.38,0,0,0,18.38-18.38h0A18.38,18.38,0,0,1,127,173.43h0a18.38,18.38,0,0,1,18.38,18.38h0a18.38,18.38,0,0,0,18.38,18.38h0A18.38,18.38,0,0,1,182.11,228.57Z"
          transform="translate(-71.31 -172.93)"/>
</svg>
